<svg width="13" height="13" viewBox="0 0 13 13" fill="none" xmlns="http://www.w3.org/2000/svg">
<path d="M12.8413 12.0754L9.60808 8.84217C10.4892 7.76458 10.9224 6.38955 10.8181 5.00152C10.7138 3.61348 10.08 2.31862 9.04777 1.38479C8.01556 0.450947 6.6639 -0.0504294 5.27239 -0.0156372C3.88087 0.0191551 2.55596 0.587454 1.5717 1.57171C0.587447 2.55597 0.0191474 3.88088 -0.0156448 5.27239C-0.050437 6.66391 0.45094 8.01556 1.38478 9.04778C2.31862 10.08 3.61347 10.7138 5.00151 10.8181C6.38955 10.9224 7.76457 10.4892 8.84216 9.60809L12.0754 12.8413C12.1775 12.94 12.3144 12.9946 12.4564 12.9933C12.5984 12.9921 12.7343 12.9351 12.8347 12.8347C12.9351 12.7343 12.9921 12.5984 12.9933 12.4564C12.9946 12.3144 12.94 12.1775 12.8413 12.0754ZM5.41666 9.75C4.55961 9.75 3.7218 9.49586 3.00919 9.01971C2.29658 8.54355 1.74116 7.86678 1.41318 7.07497C1.08521 6.28315 0.999391 5.41186 1.16659 4.57128C1.3338 3.7307 1.74651 2.95857 2.35253 2.35254C2.95856 1.74651 3.73069 1.3338 4.57127 1.1666C5.41186 0.999398 6.28314 1.08521 7.07496 1.41319C7.86677 1.74117 8.54355 2.29659 9.0197 3.0092C9.49585 3.72181 9.75 4.55962 9.75 5.41667C9.74871 6.56555 9.29175 7.667 8.47937 8.47937C7.66699 9.29175 6.56554 9.74871 5.41666 9.75Z" fill="black"/>
</svg>
