<svg width="38" height="38" viewBox="0 0 38 38" fill="none" xmlns="http://www.w3.org/2000/svg">
<path d="M24.9177 27.9974C24.6487 27.9966 24.3825 27.9409 24.1344 27.8334C23.8864 27.726 23.6615 27.5689 23.4727 27.3712L19 22.7864L14.5273 27.3742C14.2401 27.6747 13.8717 27.879 13.4702 27.9605C13.0687 28.042 12.6527 27.9968 12.2764 27.8309C11.8965 27.6733 11.5714 27.4012 11.3437 27.0502C11.116 26.6992 10.9962 26.2855 11.0001 25.8632V13.7495C11.0001 12.755 11.3832 11.8013 12.0651 11.0982C12.7471 10.395 13.672 10 14.6364 10H23.3636C23.8411 10 24.314 10.097 24.7551 10.2854C25.1963 10.4738 25.5972 10.75 25.9348 11.0982C26.2725 11.4464 26.5404 11.8597 26.7231 12.3146C26.9058 12.7695 26.9999 13.2571 26.9999 13.7495V25.8632C27.004 26.2851 26.8847 26.6986 26.6575 27.0496C26.4303 27.4006 26.1059 27.6728 25.7265 27.8309C25.4703 27.9414 25.1954 27.998 24.9177 27.9974ZM14.6364 11.4998C14.0578 11.4998 13.5028 11.7368 13.0937 12.1587C12.6845 12.5806 12.4546 13.1528 12.4546 13.7495V25.8632C12.4544 25.9882 12.49 26.1104 12.5571 26.2145C12.6242 26.3185 12.7196 26.3998 12.8315 26.4479C12.9433 26.4961 13.0665 26.509 13.1854 26.485C13.3043 26.461 13.4137 26.4012 13.4997 26.3131L18.4909 21.1981C18.6272 21.0585 18.8115 20.9801 19.0036 20.9801C19.1958 20.9801 19.3801 21.0585 19.5164 21.1981L24.5017 26.3116C24.5877 26.3997 24.6971 26.4595 24.816 26.4835C24.935 26.5075 25.0581 26.4946 25.17 26.4464C25.2818 26.3983 25.3773 26.317 25.4444 26.213C25.5114 26.1089 25.5471 25.9867 25.5468 25.8617V13.7495C25.5468 13.1528 25.317 12.5806 24.9078 12.1587C24.4986 11.7368 23.9437 11.4998 23.365 11.4998H14.6364Z" />
<circle cx="19" cy="19" r="19" fill="white" fill-opacity="0.29"/>
</svg>
