<svg width="13" height="13" viewBox="0 0 13 13" fill="none" xmlns="http://www.w3.org/2000/svg">
<g clip-path="url(#clip0_4_29)">
<path d="M6.5 6.5C7.14279 6.5 7.77114 6.30939 8.3056 5.95228C8.84006 5.59516 9.25662 5.08758 9.50261 4.49372C9.74859 3.89986 9.81295 3.2464 9.68755 2.61596C9.56215 1.98552 9.25262 1.40643 8.7981 0.951904C8.34358 0.497384 7.76448 0.187851 7.13404 0.0624493C6.5036 -0.0629527 5.85014 0.00140817 5.25628 0.247393C4.66242 0.493378 4.15484 0.909938 3.79772 1.4444C3.44061 1.97886 3.25 2.60721 3.25 3.25C3.25086 4.11169 3.59355 4.93784 4.20285 5.54715C4.81216 6.15646 5.63831 6.49914 6.5 6.5ZM6.5 1.08333C6.92853 1.08333 7.34743 1.21041 7.70373 1.44848C8.06004 1.68656 8.33775 2.02495 8.50174 2.42085C8.66573 2.81676 8.70864 3.2524 8.62503 3.6727C8.54143 4.09299 8.33508 4.47905 8.03206 4.78207C7.72905 5.08508 7.34299 5.29143 6.9227 5.37504C6.5024 5.45864 6.06676 5.41573 5.67085 5.25174C5.27495 5.08775 4.93656 4.81004 4.69848 4.45374C4.46041 4.09743 4.33333 3.67853 4.33333 3.25C4.33333 2.67537 4.56161 2.12427 4.96793 1.71794C5.37426 1.31161 5.92536 1.08333 6.5 1.08333Z" fill="white"/>
<path d="M6.5 7.58334C5.20751 7.58478 3.96837 8.09885 3.05444 9.01278C2.14051 9.92671 1.62643 11.1659 1.625 12.4583C1.625 12.602 1.68207 12.7398 1.78365 12.8414C1.88523 12.9429 2.02301 13 2.16667 13C2.31033 13 2.4481 12.9429 2.54968 12.8414C2.65127 12.7398 2.70833 12.602 2.70833 12.4583C2.70833 11.4527 3.10781 10.4883 3.81889 9.77723C4.52996 9.06616 5.49439 8.66668 6.5 8.66668C7.50561 8.66668 8.47004 9.06616 9.18111 9.77723C9.89219 10.4883 10.2917 11.4527 10.2917 12.4583C10.2917 12.602 10.3487 12.7398 10.4503 12.8414C10.5519 12.9429 10.6897 13 10.8333 13C10.977 13 11.1148 12.9429 11.2164 12.8414C11.3179 12.7398 11.375 12.602 11.375 12.4583C11.3736 11.1659 10.8595 9.92671 9.94556 9.01278C9.03163 8.09885 7.79249 7.58478 6.5 7.58334Z" fill="white"/>
</g>
<defs>
<clipPath id="clip0_4_29">
<rect width="13" height="13" fill="white"/>
</clipPath>
</defs>
</svg>
